<mxfile host="app.diagrams.net" modified="2024-04-26T12:13:36.127Z" agent="Mozilla/5.0 (Windows NT 10.0; WOW64) AppleWebKit/537.36 (KHTML, like Gecko) Chrome/86.0.4240.198 Safari/537.36" etag="98alJP3xAIY35RJI9-9K" version="24.3.0" type="github">
  <diagram name="第 1 页" id="dycVWkmTq3fJPq3QGP8Y">
    <mxGraphModel dx="1434" dy="726" grid="1" gridSize="10" guides="1" tooltips="1" connect="1" arrows="1" fold="1" page="1" pageScale="1" pageWidth="827" pageHeight="1169" math="1" shadow="0">
      <root>
        <mxCell id="0" />
        <mxCell id="1" parent="0" />
        <mxCell id="tLj4XZaMaifpu11kZpsr-40" value="LABEL" style="shape=step;perimeter=stepPerimeter;whiteSpace=wrap;html=1;fixedSize=1;size=10;fillColor=#10739E;strokeColor=none;fontSize=17;fontStyle=1;align=center;" vertex="1" parent="1">
          <mxGeometry x="50" y="90" width="200" height="30" as="geometry" />
        </mxCell>
        <mxCell id="tLj4XZaMaifpu11kZpsr-41" value="&amp;nbsp;- Lorem ipsum dolor sit ame$$F_1=ma$$&lt;div&gt;&amp;nbsp;- consectetur adipisicing elit&lt;br&gt;&amp;nbsp;- sed do eiusmod tempor&lt;br&gt;&amp;nbsp;- incididunt ut labore et dolore&lt;br&gt;&amp;nbsp;- magna aliqua.&lt;/div&gt;" style="shape=rect;fillColor=#B1DDF0;strokeColor=none;fontSize=12;html=1;whiteSpace=wrap;align=left;verticalAlign=top;spacing=5;" vertex="1" parent="1">
          <mxGeometry x="50" y="130" width="190" height="200" as="geometry" />
        </mxCell>
      </root>
    </mxGraphModel>
  </diagram>
</mxfile>
